<?xml version="1.0" encoding="UTF-8"?> <svg xmlns="http://www.w3.org/2000/svg" width="143" height="70" fill="none"><path d="M28.764 33.501a16.13 16.13 0 008.039-2.064 16.086 16.086 0 005.94-5.784h-8.336a9.221 9.221 0 01-5.643 1.748 10.196 10.196 0 01-8.093-4.06l-3.143 5.532a16.14 16.14 0 0011.236 4.628zM12.375 16.669a17.102 17.102 0 001.193 6.218L26.557 0c-7.915 1.121-14.182 8.07-14.182 16.669zM33.6.583l-3.088 5.433a10.652 10.652 0 015.27 2.62 10.615 10.615 0 013.066 5.015H26.176l-3.406 5.971h22.275c.203-.974.292-1.968.267-2.963a16.718 16.718 0 00-3.206-9.96A16.78 16.78 0 0033.6.584zm11.826 68.563a15.695 15.695 0 005.197-2.91v3.754h6.118V49.247L45.426 69.145zM40.407 63.9c-5.648 0-10.286-4.76-10.286-10.599 0-5.7 4.638-10.46 10.286-10.46 1.94.018 3.836.585 5.467 1.634a10.26 10.26 0 013.75 4.292l7.033-12.377h-6.034v4.11a15.563 15.563 0 00-10.216-3.754c-8.876-.005-16.152 7.433-16.152 16.555 0 8.362 5.85 15.109 13.454 16.422l3.376-5.887c-.238.015-.45.064-.678.064zm10.394-30.419h7.321L77.121 0h-7.168l-9.286 16.284L53.494 0h-6.41l9.83 22.818-6.113 10.663z" fill="#1E1E1C"></path><path d="M17.087 50.22l7.86-13.82h-7.454L6.385 56.186V19.623H0V70h5.85l7.6-13.38L21.304 70h7.33L17.088 50.22zm60.84 19.582l-.287-.78h-1.98l-.292.78h-1.485l2.084-4.87h1.485l2.01 4.87h-1.535zm-1.85-1.832h1.182l-.584-1.59-.599 1.59zm7.795 1.832l-.648-1.313h-.767v1.313H81.01v-4.87h2.277a2.305 2.305 0 011.52.455 1.576 1.576 0 01.54 1.274c.005.322-.068.641-.213.929a1.6 1.6 0 01-.61.622l.99 1.59h-1.643zm-1.415-2.425h.831c.182.01.36-.052.495-.172a.661.661 0 00.178-.494.646.646 0 00-.178-.494.689.689 0 00-.495-.173h-.831v1.333zm7.766-1.155a1.26 1.26 0 00-.618-.178 1.052 1.052 0 00-.59.168 1.18 1.18 0 00-.42.46 1.513 1.513 0 000 1.328c.096.189.242.35.42.464.171.118.372.183.58.188.208-.007.413-.06.599-.153.211-.106.403-.248.564-.42l.837.889a3.026 3.026 0 01-.96.691 2.66 2.66 0 01-2.426-.074 2.383 2.383 0 01-.926-.914 2.589 2.589 0 01-.332-1.308c-.004-.45.114-.892.342-1.28.225-.38.55-.69.94-.898a2.802 2.802 0 012.44-.09c.349.144.663.36.922.633l-.837.988a1.74 1.74 0 00-.535-.494zm3.005-1.289h1.445v1.936h1.733v-1.936h1.45v4.87h-1.45V67.99h-1.733v1.812h-1.445v-4.87zm6.632 0h1.446v4.87h-1.445v-4.87zm3.1 0h4.287v1.155h-1.421v3.714h-1.455v-3.714h-1.411v-1.155zm5.905 0h3.994v1.11h-2.539v.766h2.302v1.112h-2.302v.77h2.609v1.111h-4.059l-.005-4.87zm8.945 1.289a1.245 1.245 0 00-.614-.178 1.08 1.08 0 00-.594.168c-.176.114-.32.272-.416.46a1.514 1.514 0 000 1.328c.096.188.239.348.416.464.177.114.383.174.594.173.207-.007.41-.06.594-.153.213-.105.406-.247.569-.42l.832.889a2.97 2.97 0 01-.956.691 2.666 2.666 0 01-2.43-.074 2.4 2.4 0 01-.965-.918 2.588 2.588 0 01-.332-1.31 2.417 2.417 0 011.322-2.148 2.81 2.81 0 012.445-.088c.347.142.66.358.916.632l-.832.987a1.7 1.7 0 00-.549-.503zm2.613-1.289h4.287v1.155h-1.421v3.714h-1.455v-3.714h-1.411v-1.155zm7.529 3.517a.806.806 0 00.594.246.718.718 0 00.569-.247.946.946 0 00.223-.662v-2.854h1.446v2.854c.01.39-.084.775-.273 1.117a1.874 1.874 0 01-.782.736c-.368.18-.773.27-1.183.261a2.625 2.625 0 01-1.198-.261 1.889 1.889 0 01-.797-.736 2.15 2.15 0 01-.282-1.117v-2.854h1.441v2.854a.924.924 0 00.242.662zm7.623 1.352l-.648-1.313h-.782v1.313h-1.451v-4.87h2.277a2.306 2.306 0 011.52.455 1.566 1.566 0 01.54 1.274 1.92 1.92 0 01-.213.929c-.139.261-.35.477-.609.622l.99 1.59h-1.624zm-1.43-2.425h.826a.702.702 0 00.495-.172.666.666 0 00.179-.494.65.65 0 00-.179-.494.702.702 0 00-.495-.173h-.826v1.333zm4.801-2.444h3.985v1.11h-2.54v.766h2.307v1.112h-2.307v.77H143v1.111h-4.054v-4.87zM77.77 56.596c.374.201.686.502.9.869.22.378.333.808.327 1.245a2.366 2.366 0 01-1.238 2.113 2.637 2.637 0 01-1.297.316h-1.98v-4.835h1.98c.454-.018.904.083 1.307.292zm-.352 3.704c.273-.155.5-.38.658-.652a1.85 1.85 0 00.238-.934 1.8 1.8 0 00-1.847-1.832h-1.296v3.655h1.326a1.8 1.8 0 00.92-.237zm3.717-3.996h3.381v.603h-2.713v1.481h2.426v.603h-2.425v1.55H84.6v.603h-3.465v-4.84zm7.865.667a2.29 2.29 0 00-.668-.109 1.228 1.228 0 00-.678.163.495.495 0 00-.257.45.607.607 0 00.153.42c.107.11.235.197.376.256.149.06.357.134.62.218.272.08.54.178.801.291.204.095.382.237.52.415.153.21.23.466.218.726.006.26-.074.516-.228.726a1.405 1.405 0 01-.634.494c-.297.12-.615.178-.935.173a2.66 2.66 0 01-1.045-.213 2.842 2.842 0 01-.876-.553l.302-.578c.223.225.489.404.782.524.267.12.555.184.847.188.269.014.536-.053.767-.193a.636.636 0 00.129-.943 1.135 1.135 0 00-.386-.262 6.732 6.732 0 00-.63-.217 6.748 6.748 0 01-.796-.282 1.386 1.386 0 01-.495-.41 1.263 1.263 0 010-1.403c.153-.21.365-.37.609-.459a2.31 2.31 0 01.9-.158c.573.01 1.13.181 1.61.494l-.278.598a2.678 2.678 0 00-.727-.356zm3.332-.667H93v4.86h-.668v-4.86zm6.613 2.47h.594v1.788c-.262.2-.555.356-.866.464a2.977 2.977 0 01-.99.173 2.55 2.55 0 01-1.287-.331 2.38 2.38 0 01-.921-.904 2.465 2.465 0 010-2.5 2.5 2.5 0 01.936-.893c.4-.22.85-.331 1.306-.326.339.001.674.063.99.183.31.11.595.278.842.494l-.381.494a2.208 2.208 0 00-.674-.42 2.108 2.108 0 00-.777-.149 1.899 1.899 0 00-.96.252 1.82 1.82 0 00-.693.677 1.894 1.894 0 000 1.897 1.9 1.9 0 001.658.938c.21-.002.419-.035.619-.099.208-.066.407-.161.59-.281l.014-1.457zm6.49-2.47h.663v4.86h-.663l-2.782-3.763v3.763h-.683v-4.86h.673l2.792 3.769v-3.769zm9.741 4.939l-.792-.775a2.381 2.381 0 01-.708.494 1.75 1.75 0 01-.782.182 1.664 1.664 0 01-.752-.172 1.381 1.381 0 01-.54-.494 1.29 1.29 0 01-.198-.692 1.098 1.098 0 01.292-.78c.231-.238.501-.435.797-.583a2.91 2.91 0 01-.371-.598 1.37 1.37 0 01-.119-.538.995.995 0 01.342-.77 1.444 1.444 0 011.732 0 .91.91 0 01.327.716.955.955 0 01-.163.553c-.11.161-.249.3-.411.41a5.329 5.329 0 01-.624.365c.233.267.609.657 1.124 1.166a4.72 4.72 0 00.465-.919l.431.321c-.139.339-.317.66-.53.959l.822.8-.342.355zm-1.148-1.13c-.545-.544-.99-.989-1.257-1.315a2.37 2.37 0 00-.604.445.776.776 0 00-.213.538.81.81 0 00.282.637.99.99 0 00.678.252 1.563 1.563 0 001.114-.558zm-1.099-1.878c.254-.12.492-.273.708-.454a.7.7 0 00.237-.529.526.526 0 00-.173-.424.648.648 0 00-.465-.158.703.703 0 00-.495.182.603.603 0 00-.193.46c.03.339.163.661.381.923z" fill="#1E1E1C"></path></svg> 